<svg width="52" height="52" viewBox="0 0 52 52" fill="none" xmlns="http://www.w3.org/2000/svg">
<rect width="52" height="52" rx="8" fill="url(#paint0_linear_1178_5415)"/>
<path d="M41.8302 11.4154C40.2073 10.2897 37.9796 10.6929 36.8523 12.3154L24.1651 30.5891L17.8573 22.3181C16.6595 20.7475 14.4155 20.4459 12.8449 21.6438C11.2734 22.8423 10.9706 25.0861 12.1684 26.6567L21.4566 38.8356C21.4604 38.8407 21.4643 38.8458 21.4676 38.85C21.485 38.873 21.5034 38.8952 21.5223 38.9183C21.5424 38.9447 21.5642 38.9697 21.5845 38.9945C21.5935 39.0064 21.6043 39.017 21.6142 39.0282C22.0164 39.4869 22.5142 39.819 23.0549 40.0189C23.0571 40.0199 23.0592 40.021 23.0622 40.0214C23.1123 40.0395 23.1633 40.0571 23.2136 40.0737C23.2224 40.0764 23.2312 40.0791 23.24 40.0818C23.2854 40.0956 23.3301 40.1084 23.3757 40.1207C23.389 40.124 23.4008 40.1271 23.414 40.1304C23.4568 40.1407 23.4996 40.151 23.5433 40.1607C23.5574 40.1634 23.5715 40.166 23.5855 40.1702C23.6285 40.179 23.6717 40.1863 23.7149 40.1937C23.7275 40.1961 23.741 40.1979 23.7536 40.2004C23.7992 40.2073 23.8456 40.2135 23.8913 40.2189C23.9003 40.2201 23.9093 40.2213 23.9183 40.2225C23.9694 40.2279 24.0198 40.2324 24.072 40.2356C24.0758 40.2353 24.0788 40.2357 24.0833 40.2363C24.7553 40.2771 25.4405 40.1291 26.0543 39.7819C26.0635 39.7762 26.0741 39.7708 26.0832 39.7652C26.1213 39.7429 26.1594 39.7205 26.1968 39.6974C26.2159 39.6855 26.2344 39.6727 26.2535 39.6608C26.282 39.6418 26.3111 39.6236 26.339 39.6037C26.3643 39.5858 26.3895 39.5678 26.4142 39.549C26.4312 39.5361 26.4503 39.5242 26.4673 39.5112C26.4724 39.5073 26.4775 39.5034 26.4826 39.4996C26.5072 39.4808 26.5312 39.4611 26.5552 39.4415C26.579 39.4234 26.603 39.4037 26.6254 39.3839C26.6418 39.3701 26.6575 39.3554 26.6732 39.3408C26.7035 39.3136 26.7347 39.2858 26.7644 39.2578C26.7686 39.2545 26.7722 39.2505 26.7758 39.2464C26.965 39.0645 27.1311 38.8666 27.2718 38.6546L42.7267 16.3943C43.8533 14.771 43.4512 12.5438 41.8292 11.4175L41.8302 11.4154Z" fill="white"/>
<defs>
<linearGradient id="paint0_linear_1178_5415" x1="26" y1="0" x2="26" y2="52" gradientUnits="userSpaceOnUse">
<stop stop-color="#FED595"/>
<stop offset="1" stop-color="#D19254"/>
</linearGradient>
</defs>
</svg>
