<svg width="20" height="21" viewBox="0 0 20 21" fill="none" xmlns="http://www.w3.org/2000/svg">
<path d="M18.329 8.58H18.299C17.8087 8.58 17.3784 8.28 17.1883 7.83C17.1883 7.83 17.1883 7.82 17.1783 7.82C16.9982 7.37 17.0982 6.85 17.4385 6.51L17.4685 6.48C18.1189 5.83 18.1189 4.78 17.4685 4.12L16.678 3.34C16.0276 2.69 14.9669 2.69 14.3165 3.34L14.3065 3.36C13.9563 3.7 13.4259 3.8 12.9757 3.61C12.5154 3.43 12.2152 2.99 12.2152 2.5V2.47C12.2152 1.55 11.4747 0.800003 10.5541 0.800003H9.43345C8.51287 0.800003 7.77241 1.55 7.77241 2.47V2.5C7.77241 2.99 7.47222 3.43 7.02194 3.61C6.87185 3.68 6.70174 3.71 6.54164 3.71C6.23145 3.71 5.92126 3.59 5.69111 3.36L5.6711 3.34C5.02069 2.69 3.96003 2.69 3.30962 3.34L2.51913 4.12C1.86872 4.78 1.86872 5.83 2.51913 6.48L2.54915 6.51C2.88936 6.85 2.98942 7.37 2.80931 7.82C2.61919 8.27 2.17892 8.58 1.68861 8.58H1.65859C0.738018 8.58 -0.0124512 9.33 -0.0124512 10.25V11.36C-0.0124512 12.28 0.738018 13.03 1.65859 13.03H1.68861C2.17892 13.03 2.61919 13.32 2.79931 13.78C2.97942 14.23 2.88936 14.77 2.54915 15.11L2.52914 15.12C1.87873 15.78 1.87873 16.83 2.52914 17.49L3.30962 18.27C3.96003 18.92 5.02069 18.92 5.6711 18.27L5.69111 18.25C6.04133 17.9 6.55165 17.8 7.00193 17.99C7.46222 18.17 7.77241 18.62 7.77241 19.11V19.14C7.77241 20.06 8.51287 20.8 9.43345 20.8H10.5541C11.4747 20.8 12.2152 20.06 12.2152 19.14V19.11C12.2152 18.62 12.5254 18.17 12.9857 17.99C13.436 17.8 13.9463 17.9 14.2965 18.25L14.3165 18.27C14.9669 18.92 16.0276 18.92 16.678 18.27L17.4585 17.49C18.1089 16.83 18.1089 15.78 17.4585 15.12L17.4385 15.11C17.0982 14.77 17.0082 14.23 17.1883 13.78C17.3684 13.32 17.8087 13.03 18.299 13.03H18.329C19.2496 13.03 20.0001 12.28 20.0001 11.36V10.25C20.0001 9.33 19.2496 8.58 18.329 8.58ZM9.9938 14.3C8.06259 14.3 6.49161 12.73 6.49161 10.8C6.49161 8.87 8.06259 7.3 9.9938 7.3C11.925 7.3 13.496 8.87 13.496 10.8C13.496 12.73 11.925 14.3 9.9938 14.3Z" fill="white"/>
</svg>
